<?xml version="1.0" encoding="utf-8"?>
<!-- Generator: Adobe Illustrator 16.0.0, SVG Export Plug-In . SVG Version: 6.00 Build 0)  -->
<!DOCTYPE svg PUBLIC "-//W3C//DTD SVG 1.1 Tiny//EN" "http://www.w3.org/Graphics/SVG/1.1/DTD/svg11-tiny.dtd">
<svg version="1.1" baseProfile="tiny" id="Layer_1" xmlns="http://www.w3.org/2000/svg" xmlns:xlink="http://www.w3.org/1999/xlink"
	 x="0px" y="0px" width="360px" height="404px" viewBox="0 0 360 404" xml:space="preserve">
<g>
	<polygon fill="#FFFFFF" points="190.558,102.059 313.817,38.109 320.154,50.324 190.558,117.565 	"/>
	<polygon fill="#FFFFFF" points="87.273,155.769 81.557,158.735 87.273,169.755 	"/>
	<polygon fill="#FFFFFF" points="110.779,143.155 166.697,114.141 166.697,129.645 110.779,158.659 	"/>
	<path fill="#FFFFFF" d="M51.238,360.874V347.11h51.682l68.559-121.936V97.621h13.763v127.122l71.653,122.368h48.589v13.764H51.238z
		 M185.223,347.11h54.694l-53.539-95.221L185.223,347.11z M118.708,347.11h52.771v-93.853L118.708,347.11z M178.27,110.342
		c-1.934,0-3.509,1.574-3.509,3.509c0,1.936,1.575,3.511,3.509,3.511c1.937,0,3.511-1.575,3.511-3.511
		C181.78,111.916,180.206,110.342,178.27,110.342z M178.27,235.427c-1.934,0-3.509,1.575-3.509,3.511
		c0,1.933,1.575,3.511,3.509,3.511c1.937,0,3.511-1.578,3.511-3.511C181.78,237.002,180.206,235.427,178.27,235.427z
		 M178.27,349.807c-1.934,0-3.509,1.575-3.509,3.509c0,1.938,1.575,3.512,3.509,3.512c1.937,0,3.511-1.574,3.511-3.512
		C181.78,351.382,180.206,349.807,178.27,349.807z M248.771,349.807c-1.935,0-3.511,1.575-3.511,3.509
		c0,1.938,1.576,3.512,3.511,3.512s3.511-1.574,3.511-3.512C252.282,351.382,250.706,349.807,248.771,349.807z M108.027,349.807
		c-1.934,0-3.509,1.575-3.509,3.509c0,1.938,1.575,3.512,3.509,3.512c1.936,0,3.511-1.574,3.511-3.512
		C111.538,351.382,109.963,349.807,108.027,349.807z"/>
	<path fill="#FFFFFF" d="M99.115,262.532c-16.787,0-32.889-10.253-37.396-13.375l30.514-65.192v-41.434h13.765v41.432l30.515,65.197
		C132.004,252.279,115.908,262.532,99.115,262.532z M99.115,151.191c-1.936,0-3.511,1.575-3.511,3.51
		c0,1.934,1.575,3.509,3.511,3.509s3.511-1.575,3.511-3.509C102.626,152.767,101.051,151.191,99.115,151.191z"/>
	<path fill="#FFFFFF" d="M267.67,233.101c-1.684,0-3.063-1.076-4.826-2.598c-2.229-1.917-3.588-3.215-3.451-5.63
		c0.191-3.329,3.178-8.313,9.135-15.229c7.126-8.275,12.369-12.294,16.035-12.294c1.744,0,3.128,0.884,4.672,2.212
		c2.117,1.825,3.266,3.419,2.855,6.162c-0.533,3.59-3.817,8.91-9.76,15.81C275.535,229.425,270.875,233.101,267.67,233.101z"/>
	<path fill="#FFFFFF" d="M278.14,208.901c-0.683,0-1.269-0.148-1.711-0.426c-0.31-0.198-0.317-0.324-0.317-0.364
		c-0.016-0.333,0.369-0.997,1.013-1.487c4.148-3.167,8.044-6.774,11.579-10.726c19.707-22.035,27.648-49.585,30.841-68.818
		c4.758-28.68-0.252-54.115-11.055-71.849c-0.252-0.41-0.198-0.68-0.042-0.955c0.576-1.021,2.523-1.919,4.176-1.919
		c0.388,0,1.311,0.059,1.632,0.583c3.791,6.221,8.913,16.631,11.139,25.271c2.341,9.085,3.045,19.073,2.214,31.433
		c-0.846,12.598-3.115,24.949-6.738,36.706c-8.376,27.163-21.716,47.877-39.653,61.566
		C280.432,208.511,279.227,208.901,278.14,208.901L278.14,208.901z"/>
	<g>
		<path fill="#FFFFFF" d="M266.517,207.908c1.87-2.169,3.606-4.048,5.234-5.663c-8.265,0.549-14.802,7.425-14.802,15.83
			c0,1.256,0.15,2.474,0.424,3.644C258.592,218.139,261.565,213.659,266.517,207.908z"/>
		<path fill="#FFFFFF" d="M284.344,223.266c-4.575,5.313-8.204,8.768-11.286,10.672c8.653-0.13,15.628-7.182,15.628-15.862
			c0-0.06-0.004-0.121-0.004-0.182C287.432,219.571,285.992,221.359,284.344,223.266z"/>
	</g>
</g>
</svg>
